Coordinates
version=1
nRows=19
nColumns=24
inDegrees=yes

Units are S.I. units (second, meters, Newtons, ...)
If the header above contains a line with 'inDegrees', this indicates whether rotational values are in degrees (yes) or radians (no).

endheader
time	pelvis_tilt	pelvis_list	pelvis_rotation	pelvis_tx	pelvis_ty	pelvis_tz	hip_flexion_r	hip_adduction_r	hip_rotation_r	knee_angle_r	ankle_angle_r	subtalar_angle_r	mtp_angle_r	hip_flexion_l	hip_adduction_l	hip_rotation_l	knee_angle_l	ankle_angle_l	subtalar_angle_l	mtp_angle_l	lumbar_extension	lumbar_bending	lumbar_rotation
      2.22000000	     21.65325805	      1.05575536	      1.29750498	      0.10231750	      0.53169637	     -0.02958979	     69.82246481	     -4.82152211	      2.34411283	   -114.37604923	     24.39590980	      0.00000000	      0.00000000	     71.00824651	     -1.72150269	     -1.72829871	   -115.24365775	     21.52081472	      0.00000000	      0.00000000	    -66.37930766	     -1.21345638	     -1.96105854
      2.23000000	     20.84519473	      0.94609504	      1.36728411	      0.10564572	      0.53222346	     -0.02994678	     70.31614668	     -4.83712175	      2.26642960	   -114.40185678	     24.85333963	      0.00000000	      0.00000000	     71.57188029	     -1.69920692	     -1.64856851	   -115.29920448	     21.87163546	      0.00000000	      0.00000000	    -66.48916370	     -1.03977143	     -1.87292950
      2.24000000	     19.94341389	      0.82097007	      1.44455448	      0.10905521	      0.53285233	     -0.03023764	     70.87513858	     -4.82922763	      2.16847709	   -114.38770166	     25.21441435	      0.00000000	      0.00000000	     72.22110070	     -1.69649288	     -1.54862283	   -115.32531827	     22.13675186	      0.00000000	      0.00000000	    -66.46350279	     -0.83210222	     -1.82279439
      2.25000000	     19.05613321	      0.69589867	      1.53491222	      0.11251869	      0.53378451	     -0.03061805	     71.35923844	     -4.80704769	      2.10040703	   -114.32589269	     25.63860610	      0.00000000	      0.00000000	     72.79862552	     -1.67792491	     -1.46599696	   -115.30249842	     22.46251179	      0.00000000	      0.00000000	    -66.38907191	     -0.61769573	     -1.82266287
      2.26000000	     18.16596874	      0.58700831	      1.63791005	      0.11597604	      0.53495788	     -0.03098286	     71.81162599	     -4.76151885	      2.06474717	   -114.23195138	     26.01890715	      0.00000000	      0.00000000	     73.34006253	     -1.64483480	     -1.39154976	   -115.23795705	     22.76463235	      0.00000000	      0.00000000	    -66.31180130	     -0.39842683	     -1.85968788
      2.27000000	     17.24441134	      0.48698369	      1.75974726	      0.11942237	      0.53636600	     -0.03137501	     72.25770601	     -4.70000395	      2.06040622	   -114.09421995	     26.35976262	      0.00000000	      0.00000000	     73.87455883	     -1.58921498	     -1.32601229	   -115.12055416	     23.04311112	      0.00000000	      0.00000000	    -66.16913456	     -0.17354345	     -1.95191823
      2.28000000	     16.62405225	      0.45915831	      1.84227505	      0.12259456	      0.53873493	     -0.03175661	     72.31186099	     -4.60534219	      2.15865185	   -113.85907603	     26.57085341	      0.00000000	      0.00000000	     73.98496683	     -1.53391337	     -1.32720419	   -114.89955799	     23.23448242	      0.00000000	      0.00000000	    -66.39356818	     -0.06168211	     -1.94749521
      2.29000000	     15.64675666	      0.39390259	      2.02380308	      0.12615422	      0.54042484	     -0.03224575	     72.74071669	     -4.56266750	      2.20281552	   -113.69059135	     27.13604373	      0.00000000	      0.00000000	     74.50113466	     -1.38795434	     -1.27881224	   -114.71669666	     23.74708639	      0.00000000	      0.00000000	    -66.08510995	      0.23009735	     -2.15018400
      2.30000000	     14.66942306	      0.37088455	      2.18908774	      0.12952894	      0.54267596	     -0.03273853	     73.12099416	     -4.51066353	      2.31733108	   -113.39599123	     27.39636143	      0.00000000	      0.00000000	     74.94654555	     -1.21803655	     -1.25072446	   -114.41881438	     23.97965791	      0.00000000	      0.00000000	    -65.71948072	      0.42983853	     -2.47756521
      2.31000000	     13.87434611	      0.39002871	      2.33115899	      0.13282029	      0.54544656	     -0.03320090	     73.26842088	     -4.43960663	      2.48387134	   -113.07844538	     27.71241781	      0.00000000	      0.00000000	     75.13683338	     -1.04859493	     -1.26990326	   -114.08160098	     24.28888905	      0.00000000	      0.00000000	    -65.61054685	      0.58371524	     -2.74245041
      2.32000000	     13.24433151	      0.38574894	      2.42357890	      0.13595934	      0.54877326	     -0.03360232	     73.19981493	     -4.31499094	      2.63346394	   -112.69229591	     27.90554991	      0.00000000	      0.00000000	     75.10945572	     -0.92145311	     -1.25289368	   -113.69006858	     24.48009228	      0.00000000	      0.00000000	    -65.65758796	      0.68489772	     -2.80960103
      2.33000000	     12.60879795	      0.38757136	      2.53258488	      0.13913887	      0.55230057	     -0.03393823	     73.10402663	     -4.20362326	      2.77991461	   -112.27518924	     28.12495516	      0.00000000	      0.00000000	     75.05829110	     -0.78358690	     -1.22868893	   -113.27009739	     24.70502639	      0.00000000	      0.00000000	    -65.61829000	      0.78277354	     -2.88874076
      2.34000000	     11.73528804	      0.46558151	      2.70364280	      0.14256171	      0.55547416	     -0.03450451	     73.25927623	     -4.23779461	      2.96616901	   -111.88427455	     28.67350656	      0.00000000	      0.00000000	     75.20381962	     -0.48799682	     -1.26299585	   -112.80969869	     25.28012893	      0.00000000	      0.00000000	    -65.16869654	      0.98085178	     -3.27548740
      2.35000000	     11.01342410	      0.51700309	      2.80727447	      0.14583993	      0.55916698	     -0.03489482	     73.22720280	     -4.18391031	      3.13979295	   -111.42991807	     28.92092241	      0.00000000	      0.00000000	     75.18259253	     -0.29667476	     -1.29581451	   -112.30910784	     25.55121180	      0.00000000	      0.00000000	    -64.90289969	      1.05724650	     -3.59610389
      2.36000000	     10.43466314	      0.51808379	      2.84083764	      0.14901319	      0.56338223	     -0.03517015	     73.01523447	     -4.09865061	      3.23862418	   -110.88828585	     29.01824170	      0.00000000	      0.00000000	     74.97366910	     -0.17981447	     -1.25329511	   -111.77976053	     25.65588987	      0.00000000	      0.00000000	    -64.77236307	      1.07566153	     -3.69166470
      2.37000000	      9.81562256	      0.53614100	      2.86611990	      0.15235983	      0.56755928	     -0.03551929	     72.82725517	     -4.04104659	      3.33335649	   -110.35220970	     29.28890843	      0.00000000	      0.00000000	     74.76995593	     -0.02826131	     -1.23363056	   -111.23330609	     25.97616575	      0.00000000	      0.00000000	    -64.47731027	      1.11858903	     -3.86341568
      2.38000000	      9.14598054	      0.58343558	      2.89376385	      0.15581879	      0.57173102	     -0.03581119	     72.68621353	     -4.04266742	      3.43304917	   -109.80810031	     29.62640976	      0.00000000	      0.00000000	     74.59113265	      0.12511319	     -1.22709293	   -110.66213807	     26.39848453	      0.00000000	      0.00000000	    -64.01865921	      1.13296010	     -4.16980475
      2.39000000	      8.59168405	      0.57788190	      2.87178733	      0.15915772	      0.57631773	     -0.03602199	     72.40724330	     -3.99015213	      3.46696514	   -109.19769447	     29.71223926	      0.00000000	      0.00000000	     74.29449956	      0.20210890	     -1.18350515	   -110.06557851	     26.50801900	      0.00000000	      0.00000000	    -63.76799720	      1.11729437	     -4.26038602
      2.40000000	      7.99198805	      0.58167027	      2.82281341	      0.16271887	      0.58081309	     -0.03622606	     72.15819172	     -3.95465329	      3.49533052	   -108.59121185	     30.03390346	      0.00000000	      0.00000000	     74.00224245	      0.29265625	     -1.13861178	   -109.45999005	     26.95355639	      0.00000000	      0.00000000	    -63.21811756	      1.07486716	     -4.47127353
